<?xml version="1.0" encoding="utf-8"?>
<svg id="master-artboard" viewBox="0 0 300 300" version="1.0" xmlns="http://www.w3.org/2000/svg" x="0px" y="0px" width="300px" height="300px" enable-background="new 0 0 1400 980"><rect id="ee-background" x="0" y="0" width="300" height="300" style="fill: white; fill-opacity: 0; pointer-events: none;"/>


<g transform="matrix(1, 0, 0, 1, -711.9569854736328, -180.73960876464844)">
		<path d="M761.7,225.1v196.4h195.8V225.1H761.7z M948.5,412.5H770.7V269.4h177.7V412.5z M948.5,260.3H770.7v-26.2h177.7V260.3z"/>
		<g>
			<g>
				<path d="M 781.400024 242.699997 H 877.300026 V 251.799997 H 781.400024 V 242.699997 Z"/>
			</g>
		</g>
		<path d="M 913.200012 242.699997 H 922.300013 V 251.799997 H 913.200012 V 242.699997 Z"/>
		<path d="M 928.700012 242.699997 H 937.800013 V 251.799997 H 928.700012 V 242.699997 Z"/>
		<path d="M 897.700012 242.699997 H 906.800013 V 251.799997 H 897.700012 V 242.699997 Z"/>
	</g><g transform="matrix(1, 0, 0, 1, -711.9569854736328, -180.73960876464844)">
			<path d="M841.5,340.9v-48.4l40.5,24.2L841.5,340.9z M850.5,308.4V325l13.8-8.3L850.5,308.4z"/>
		</g><path d="M938.8,357.1H780.4v-80.7h158.4V357.1z M789.5,348h140.3v-62.6H789.5V348z" transform="matrix(1, 0, 0, 1, -711.9569854736328, -180.73960876464844)"/><g transform="matrix(1, 0, 0, 1, -711.9569854736328, -180.73960876464844)">
				<g>
					<path d="M 780.400024 363.899994 H 848.000023 V 372.999994 H 780.400024 V 363.899994 Z"/>
				</g>
				<g>
					<path d="M 780.400024 380.299988 H 848.000023 V 389.399988 H 780.400024 V 380.299988 Z"/>
				</g>
				<g>
					<path d="M 780.400024 396.700012 H 823.900024 V 405.800013 H 780.400024 V 396.700012 Z"/>
				</g>
			</g><g transform="matrix(1, 0, 0, 1, -711.9569854736328, -180.73960876464844)">
					<path d="M 871.200012 363.899994 H 938.800011 V 372.999994 H 871.200012 V 363.899994 Z"/>
				</g><path d="M 871.200012 380.299988 H 938.800011 V 389.399988 H 871.200012 V 380.299988 Z" transform="matrix(1, 0, 0, 1, -711.9569854736328, -180.73960876464844)"/><path d="M 871.200012 396.700012 H 914.500011 V 405.800013 H 871.200012 V 396.700012 Z" transform="matrix(1, 0, 0, 1, -711.9569854736328, -180.73960876464844)"/>





</svg>