<?xml version="1.0" encoding="utf-8"?>
<svg id="master-artboard" viewBox="0 0 300 300" version="1.0" xmlns="http://www.w3.org/2000/svg" x="0px" y="0px" width="300px" height="300px" enable-background="new 0 0 1400 980">
	<rect id="ee-background" x="0" y="0" width="300" height="300" style="fill:	rgb(255,255,255); fill-opacity:  	rgb(255,255,255); pointer-events: none;"/>




<g transform="matrix(1, 0, 0, 1, -61.2943115234375, -507.6426239013672)">
		<g>
			<path d="M125.8,558.5v196.4h195.8V558.5H125.8z M312.5,745.8H134.8V602.8h177.7V745.8z M312.5,593.7H134.8v-26.2h177.7V593.7z"/>
		</g>
		<g>
			<g>
				<g>
					<path d="M 145.5 576.099976 H 241.400002 V 585.199976 H 145.5 V 576.099976 Z"/>
				</g>
			</g>
		</g>
		<g>
			<path d="M 277.299988 576.099976 H 286.399988 V 585.199976 H 277.299988 V 576.099976 Z"/>
		</g>
		<g>
			<path d="M 292.799988 576.099976 H 301.899988 V 585.199976 H 292.799988 V 576.099976 Z"/>
		</g>
		<g>
			<path d="M 261.700012 576.099976 H 270.800013 V 585.199976 H 261.700012 V 576.099976 Z"/>
		</g>
	</g><g transform="matrix(1, 0, 0, 1, -61.2943115234375, -507.6426239013672)">
			<g>
				<path d="M 142.5 608.200012 H 159.5 V 617.300013 H 142.5 V 608.200012 Z"/>
			</g>
			<g>
				<path d="M 172.399994 608.200012 H 204.299994 V 617.300013 H 172.399994 V 608.200012 Z"/>
			</g>
			<g>
				<path d="M 213.399994 608.200012 H 234.799994 V 617.300013 H 213.399994 V 608.200012 Z"/>
			</g>
			<g>
				<path d="M 142.5 628.400024 H 159.5 V 637.500025 H 142.5 V 628.400024 Z"/>
			</g>
			<g>
				<path d="M 172.399994 628.400024 H 192.299994 V 637.500025 H 172.399994 V 628.400024 Z"/>
			</g>
			<g>
				<path d="M 201.300003 628.400024 H 249.800003 V 637.500025 H 201.300003 V 628.400024 Z"/>
			</g>
			<g>
				<path d="M 142.5 648.599976 H 159.5 V 657.699976 H 142.5 V 648.599976 Z"/>
			</g>
			<g>
				<path d="M 181.600006 648.599976 H 213.400005 V 657.699976 H 181.600006 V 648.599976 Z"/>
			</g>
			<g>
				<path d="M 222.5 648.599976 H 237.6 V 657.699976 H 222.5 V 648.599976 Z"/>
			</g>
			<g>
				<path d="M 246.600006 648.599976 H 304.900005 V 657.699976 H 246.600006 V 648.599976 Z"/>
			</g>
			<g>
				<path d="M 142.5 668.799988 H 159.5 V 677.899988 H 142.5 V 668.799988 Z"/>
			</g>
			<g>
				<path d="M 172.399994 668.799988 H 204.299994 V 677.899988 H 172.399994 V 668.799988 Z"/>
			</g>
			<g>
				<path d="M 213.399994 668.799988 H 234.799994 V 677.899988 H 213.399994 V 668.799988 Z"/>
			</g>
			<g>
				<path d="M 142.5 689 H 159.5 V 698.1 H 142.5 V 689 Z"/>
			</g>
			<g>
				<path d="M 172.399994 689 H 228.499992 V 698.1 H 172.399994 V 689 Z"/>
			</g>
			<g>
				<path d="M 237.600006 689 H 252.800006 V 698.1 H 237.600006 V 689 Z"/>
			</g>
			<g>
				<path d="M 261.799988 689 H 293.799988 V 698.1 H 261.799988 V 689 Z"/>
			</g>
			<g>
				<path d="M 142.5 709.099976 H 159.5 V 718.199976 H 142.5 V 709.099976 Z"/>
			</g>
			<g>
				<path d="M 192.899994 709.099976 H 237.499992 V 718.199976 H 192.899994 V 709.099976 Z"/>
			</g>
			<g>
				<path d="M 142.5 729.299988 H 159.5 V 738.399988 H 142.5 V 729.299988 Z"/>
			</g>
			<g>
				<path d="M 172.399994 729.299988 H 192.899994 V 738.399988 H 172.399994 V 729.299988 Z"/>
			</g>
			<g>
				<path d="M 202 729.299988 H 249.900002 V 738.399988 H 202 V 729.299988 Z"/>
			</g>
			<g>
				<path d="M 258.899994 729.299988 H 274.999994 V 738.399988 H 258.899994 V 729.299988 Z"/>
			</g>
			<g>
				<path d="M 258.899994 628.400024 H 275.299994 V 637.500025 H 258.899994 V 628.400024 Z"/>
			</g>
			<g>
				<path d="M 246.600006 709.099976 H 273.500006 V 718.199976 H 246.600006 V 709.099976 Z"/>
			</g>
		</g>



</svg>
