<?xml version="1.0" encoding="utf-8"?>
<svg id="master-artboard" viewBox="0 0 300 300" version="1.0" xmlns="http://www.w3.org/2000/svg" x="0px" y="0px" width="300px" height="300px" enable-background="new 0 0 1400 980"><rect id="ee-background" x="0" y="0" width="300" height="300" style="fill: white; fill-opacity: 0; pointer-events: none;"/>







<g transform="matrix(1, 0, 0, 1, -392.9122543334961, -174.4530487060547)">
		<g>
			<path d="M445.1,225.1v196.4h195.8V225.1H445.1z M631.9,412.5H454.2V269.4h177.7V412.5z M631.9,260.3H454.2v-26.2h177.7V260.3z"/>
		</g>
		<g>
			<g>
				<g>
					<path d="M 464.899994 242.699997 H 560.799995 V 251.799997 H 464.899994 V 242.699997 Z"/>
				</g>
			</g>
		</g>
		<g>
			<path d="M 596.599976 242.699997 H 605.699976 V 251.799997 H 596.599976 V 242.699997 Z"/>
		</g>
		<g>
			<path d="M 612.200012 242.699997 H 621.300013 V 251.799997 H 612.200012 V 242.699997 Z"/>
		</g>
		<g>
			<path d="M 581.099976 242.699997 H 590.199976 V 251.799997 H 581.099976 V 242.699997 Z"/>
		</g>
	</g><g transform="matrix(1, 0, 0, 1, -392.9122543334961, -174.4530487060547)">
			<g>
				<path d="M462.5,287.5v107h161.1v-107H462.5z M614.5,385.5H472.2l31.5-33.2l18,17.9l41.9-41.9l50.9,50.5V385.5z M614.5,366.1&#10;&#9;&#9;&#9;&#9;&#9;l-51-50.5l-41.9,41.9l-18.2-18.1l-32,33.7v-76.6h143V366.1z"/>
			</g>
			<g>
				<path d="M519.1,336.5c-9.2,0-16.6-7.4-16.6-16.5s7.4-16.5,16.6-16.5c9.2,0,16.6,7.4,16.6,16.5S528.2,336.5,519.1,336.5z&#10;&#9;&#9;&#9;&#9;&#9; M519.1,312.5c-4.2,0-7.5,3.4-7.5,7.5c0,4.1,3.4,7.5,7.5,7.5c4.2,0,7.5-3.4,7.5-7.5C526.6,315.9,523.2,312.5,519.1,312.5z"/>
			</g>
		</g>
</svg>