<?xml version="1.0" encoding="utf-8"?>
<svg id="master-artboard" viewBox="0 0 300 300" version="1.0" xmlns="http://www.w3.org/2000/svg" x="0px" y="0px" width="300px" height="300px" enable-background="new 0 0 1400 980"><rect id="ee-background" x="0" y="0" width="300" height="300" style="fill: white; fill-opacity: 0; pointer-events: none;"/>



<g transform="matrix(1, 0, 0, 1, -72.29586029052734, -182.311279296875)">
		<g>
			<g>
				<g>
					<path  d="M161.8,393L161.8,393l3,3.3C163.8,395.2,162.8,394.1,161.8,393z M289.2,393c-1,1.1-2,2.2-3,3.3L289.2,393L289.2,393z"/>
				</g>
			</g>
			<g>
				<g>
					<path d="M221,412.1v0.4c0.3,0,0.7,0.1,1,0.1c0.8,0,1.6,0.1,2.4,0.1C223.2,412.5,222.1,412.4,221,412.1z M226.6,412.6&#10;&#9;&#9;&#9;&#9;&#9;&#9;c0.8,0,1.6,0,2.4-0.1c0.3,0,0.7,0,1-0.1v-0.4C228.9,412.4,227.8,412.5,226.6,412.6z"/>
				</g>
			</g>
		</g>
		<g>
			<path d="M224.3,412.6c-0.8,0-1.6,0-2.4-0.1c-0.3,0-0.7,0-1-0.1v-0.4C222.1,412.4,223.2,412.5,224.3,412.6z"/>
			<path d="M230,412.1v0.4c-0.3,0-0.7,0.1-1,0.1c-0.8,0-1.6,0.1-2.4,0.1C227.8,412.5,228.9,412.4,230,412.1z"/>
		</g>
	</g><path d="M321.6,225.1H129.4v72h20.9c-6.4,12.1-9.8,25.6-9.8,39.6c0,20.9,7.5,40.7,21.3,56.2c1,1.1,2,2.2,3,3.3&#10;&#9;&#9;&#9;c16.1,16.4,37.6,25.4,60.6,25.4c23,0,44.5-9,60.6-25.4c1.1-1.1,2.1-2.1,3-3.3c13.8-15.5,21.3-35.3,21.3-56.2&#10;&#9;&#9;&#9;c0-14-3.4-27.6-9.8-39.6h20.9V225.1z M160.8,297.1h21.3c0.2,0.2,0.5,0.3,0.7,0.5c-3,10.4-4.8,22.1-5.2,34.7h-27.9&#10;&#9;&#9;&#9;C150.5,319.7,154.3,307.7,160.8,297.1z M149.8,341.3h27.9c0.4,12.5,2.2,24.3,5.2,34.7c-5.2,3-10.1,6.6-14.6,10.7&#10;&#9;&#9;&#9;C157.2,373.9,150.7,358.1,149.8,341.3z M197.7,407.4c-0.9-0.3-1.8-0.7-2.6-1.1c-0.9-0.4-1.9-0.8-2.8-1.3c-0.7-0.3-1.3-0.6-2-1&#10;&#9;&#9;&#9;c-5.6-2.9-10.9-6.6-15.7-11c3.5-3.1,7.2-5.9,11.1-8.3c3.5,9.2,8,17.1,13.3,23.1C198.6,407.7,198.1,407.6,197.7,407.4z M221,308.9&#10;&#9;&#9;&#9;v23.3h-34.2c0.3-10.9,1.9-21.2,4.4-30.4C200.5,306,210.7,308.4,221,308.9z M204.8,297.1H221v2.7&#10;&#9;&#9;&#9;C215.4,299.5,210,298.6,204.8,297.1z M221,341.3v23.3c-10.3,0.5-20.4,3-29.8,7.1c-2.5-9.2-4.1-19.6-4.4-30.4H221z M222,412.5&#10;&#9;&#9;&#9;c-0.3,0-0.7,0-1-0.1v-0.4c-11-2.6-20.7-14.6-27-31.7c8.5-3.9,17.6-6.2,27-6.7v38.4c1.1,0.3,2.2,0.5,3.4,0.5&#10;&#9;&#9;&#9;C223.6,412.6,222.7,412.6,222,412.5z M230,412.1v0.4c-0.3,0-0.7,0.1-1,0.1c-0.8,0-1.6,0.1-2.4,0.1&#10;&#9;&#9;&#9;C227.8,412.5,228.9,412.4,230,412.1v-38.4c9.4,0.5,18.5,2.8,27,6.7C250.8,397.4,241,409.5,230,412.1z M259.8,301.8&#10;&#9;&#9;&#9;c2.5,9.2,4.1,19.6,4.4,30.4H230v-23.3C240.3,308.4,250.5,305.9,259.8,301.8z M230,299.8v-2.7h16.2&#10;&#9;&#9;&#9;C241,298.6,235.6,299.5,230,299.8z M264.3,341.3c-0.3,10.9-1.9,21.2-4.4,30.4c-9.4-4.2-19.5-6.6-29.8-7.1v-23.3H264.3z M260.6,404&#10;&#9;&#9;&#9;c-0.6,0.4-1.3,0.7-2,1c-0.9,0.5-1.8,0.9-2.8,1.3c-0.8,0.4-1.7,0.7-2.6,1.1c-0.4,0.2-0.8,0.4-1.3,0.5c5.3-6.1,9.7-13.9,13.3-23.2&#10;&#9;&#9;&#9;c4,2.4,7.7,5.2,11.1,8.3C271.6,397.4,266.3,401.1,260.6,404z M282.7,386.6c-4.4-4.1-9.3-7.7-14.5-10.7c3-10.4,4.8-22.2,5.2-34.7&#10;&#9;&#9;&#9;h27.9C300.3,358.1,293.8,373.9,282.7,386.6z M301.3,332.2h-27.9c-0.4-12.5-2.2-24.3-5.2-34.7c0.2-0.1,0.5-0.2,0.7-0.4h21.4&#10;&#9;&#9;&#9;C296.8,307.7,300.5,319.7,301.3,332.2z M311.8,287.3H139.2v-52.4h172.6V287.3z" transform="matrix(1, 0, 0, 1, -72.29586029052734, -182.311279296875)"/><g transform="matrix(1, 0, 0, 1, -72.29586029052734, -182.311279296875)">
			<g>
				<path d="M228.1,280h-0.2c-10.4,0-18.8-8.4-18.8-18.8c0-10.6,8.4-19,18.8-19c10.6,0,19,8.4,19,18.8&#10;&#9;&#9;&#9;&#9;&#9;C246.9,271.6,238.4,280,228.1,280z M228.1,252c-5.2,0-9.3,4.1-9.3,9c0,5.2,4.1,9.3,9,9.3h0.2c5,0,9-4.1,9-9&#10;&#9;&#9;&#9;&#9;&#9;C237.1,256,233,252,228.1,252z"/>
			</g>
		</g><g transform="matrix(1, 0, 0, 1, -72.29586029052734, -182.311279296875)">
				<path d="M204.7,280h-14c-10.4,0-18.9-8.5-18.9-18.9c0-10.4,8.5-18.9,18.9-18.9h14v9.8h-14c-5,0-9.1,4.1-9.1,9.1&#10;&#9;&#9;&#9;&#9;&#9;c0,5,4.1,9.1,9.1,9.1h14V280z"/>
			</g><g transform="matrix(1, 0, 0, 1, -72.29586029052734, -182.311279296875)">
				<path d="M293.6,255.1V280h-9.8v-24.9c0-1.8-1.4-3.2-3.2-3.2c-1.7,0-3.2,1.4-3.2,3.2V280h-9.8v-24.9c0-1.8-1.4-3.2-3.2-3.2&#10;&#9;&#9;&#9;&#9;&#9;c-1.8,0-3.2,1.4-3.2,3.2V280h-9.8v-24.9c0-7.2,5.8-13,13-13c3.1,0,5.8,1.1,8.1,2.8c2.2-1.8,5-2.8,8.1-2.8&#10;&#9;&#9;&#9;&#9;&#9;C287.7,242.1,293.6,248,293.6,255.1z"/>
			</g><g transform="matrix(1, 0, 0, 1, -72.29586029052734, -182.311279296875)">
				<path d="M162.3,269L162.3,269c2.7,0,4.8,2.2,4.8,4.8l0,0c0,2.7-2.2,4.8-4.8,4.8h0c-2.7,0-4.8-2.2-4.8-4.8v0&#10;&#9;&#9;&#9;&#9;&#9;C157.4,271.2,159.6,269,162.3,269z"/>
			</g>




</svg>
