<?xml version="1.0" encoding="utf-8"?>
<svg id="master-artboard" viewBox="0 0 300 300" version="1.0" xmlns="http://www.w3.org/2000/svg" x="0px" y="0px" width="300px" height="300px" enable-background="new 0 0 1400 980"><rect id="ee-background" x="0" y="0" width="300" height="300" style="fill: white; fill-opacity: 0; pointer-events: none;"/>

<g transform="matrix(1, 0, 0, 1, -707.2420501708984, -501.35601806640625)">
		<g>
			<g>
				<g>
					<path d="M 781.400024 576.099976 H 877.300026 V 585.199976 H 781.400024 V 576.099976 Z"/>
				</g>
			</g>
		</g>
		<g>
			<path d="M 913.200012 576.099976 H 922.300013 V 585.199976 H 913.200012 V 576.099976 Z"/>
		</g>
		<g>
			<path d="M 928.700012 576.099976 H 937.800013 V 585.199976 H 928.700012 V 576.099976 Z"/>
		</g>
		<g>
			<path d="M 897.599976 576.099976 H 906.699976 V 585.199976 H 897.599976 V 576.099976 Z"/>
		</g>
	</g><g transform="matrix(1, 0, 0, 1, -707.2420501708984, -501.35601806640625)">
			<path d="M761.7,558.5v196.4h195.8V558.5H761.7z M785.8,745.8c-1-4.2-1.7-8.6-1.9-13.1h27.9c0.1,4.5,0.5,8.8,0.9,13.1H785.8z&#10;&#9;&#9;&#9;&#9; M811.8,723.7h-27.9c1-17.3,7.8-33.1,18.6-45.3c4.4,4,9.3,7.6,14.5,10.6C813.9,699.4,812.1,711.2,811.8,723.7z M808.8,671.9&#10;&#9;&#9;&#9;&#9;c7-6.3,15.2-11.4,24.3-14.8c-5.2,6.1-9.7,13.9-13.2,23.1C815.9,677.8,812.2,675,808.8,671.9z M855.1,745.8h-33.2&#10;&#9;&#9;&#9;&#9;c-0.5-4.3-0.9-8.6-1-13.1h34.2V745.8z M855.1,723.7h-34.2c0.3-10.9,1.9-21.2,4.5-30.4c9.2,4.1,19.2,6.6,29.8,7.1V723.7z&#10;&#9;&#9;&#9;&#9; M855.1,691.3c-9.6-0.5-18.7-2.9-27-6.7c6.3-17.1,16-29.1,27-31.7V691.3z M897.3,745.8h-33.2v-13.1h34.2&#10;&#9;&#9;&#9;&#9;C898.2,737.2,897.9,741.6,897.3,745.8z M864.1,723.7v-23.3c10.5-0.5,20.6-3,29.8-7.1c2.5,9.3,4.1,19.6,4.4,30.4H864.1z&#10;&#9;&#9;&#9;&#9; M864.1,691.3v-38.4c11,2.6,20.7,14.6,27,31.7C882.8,688.4,873.7,690.8,864.1,691.3z M886.1,657.2c9,3.4,17.3,8.4,24.3,14.8&#10;&#9;&#9;&#9;&#9;c-3.4,3.1-7.1,5.9-11.1,8.3C895.8,671.1,891.4,663.2,886.1,657.2z M933.4,745.8h-26.9c0.5-4.2,0.8-8.6,0.9-13.1h27.9&#10;&#9;&#9;&#9;&#9;C935.1,737.2,934.4,741.6,933.4,745.8z M907.4,723.7c-0.4-12.5-2.2-24.3-5.2-34.7c5.2-3,10.1-6.6,14.5-10.6&#10;&#9;&#9;&#9;&#9;c10.7,12.3,17.6,28,18.6,45.3H907.4z M948.5,745.8h-5.8c1.2-5.7,1.9-11.6,1.9-17.6c0-21.6-8.1-41.3-21.4-56.3&#10;&#9;&#9;&#9;&#9;c-2-2.3-4.1-4.4-6.4-6.5c-15.1-13.8-35.2-22.2-57.1-22.2c-22,0-42.1,8.4-57.2,22.2c-2.2,2-4.3,4.2-6.4,6.5&#10;&#9;&#9;&#9;&#9;c-13.3,15-21.4,34.7-21.4,56.3c0,6,0.6,11.9,1.9,17.6h-5.8V602.8h177.7V745.8z M948.5,593.7H770.7v-26.2h177.7V593.7z"/>
		</g>






</svg>