<?xml version="1.0" encoding="utf-8"?>
<svg id="master-artboard" viewBox="0 0 300 300" version="1.0" xmlns="http://www.w3.org/2000/svg" x="0px" y="0px" width="300px" height="300px" enable-background="new 0 0 1400 980"><rect id="ee-background" x="0" y="0" width="300" height="300" style="fill: white; fill-opacity: 0; pointer-events: none;"/>





<g transform="matrix(1, 0, 0, 1, -1018.4285125732422, -515.500846862793)">
		<g>
			<path d="M1078.4,558.5v196.4h195.8V558.5H1078.4z M1265.2,745.9h-177.7V602.8h177.7V745.9z M1265.2,593.7h-177.7v-26.2h177.7&#10;&#9;&#9;&#9;&#9;V593.7z"/>
		</g>
		<g>
			<g>
				<g>
					<path d="M 1098.099976 576.099976 H 1193.999977 V 585.199976 H 1098.099976 V 576.099976 Z"/>
				</g>
			</g>
		</g>
		<g>
			<path d="M 1229.900024 576.099976 H 1239.000025 V 585.199976 H 1229.900024 V 576.099976 Z"/>
		</g>
		<g>
			<path d="M 1245.400024 576.099976 H 1254.500025 V 585.199976 H 1245.400024 V 576.099976 Z"/>
		</g>
		<g>
			<path d="M 1214.400024 576.099976 H 1223.500025 V 585.199976 H 1214.400024 V 576.099976 Z"/>
		</g>
	</g><g transform="matrix(1, 0, 0, 1, -1018.4285125732422, -515.500846862793)">
			<g>
				<path d="M1242,664.8v-43.3h-131.3v43.3h24.3v4.8h-24.3v43.3h24.3v13.9h82.7v-13.9h24.3v-43.3h-24.3v-4.8H1242z M1208.6,717.7&#10;&#9;&#9;&#9;&#9;&#9;H1144v-4.8h64.6V717.7z M1232.9,678.7v25.1h-113.2v-25.1H1232.9z M1144,669.6v-4.8h64.6v4.8H1144z M1119.7,655.7v-25.1h113.2&#10;&#9;&#9;&#9;&#9;&#9;v25.1H1119.7z"/>
			</g>
			<g>
				<g>
					<g>
						<g>
							<path d="M 1127.900024 638.599976 H 1169.400024 V 647.699976 H 1127.900024 V 638.599976 Z"/>
						</g>
					</g>
				</g>
				<g>
					<path d="M 1215.699951 638.599976 H 1224.799952 V 647.699976 H 1215.699951 V 638.599976 Z"/>
				</g>
				<g>
					<path d="M 1200.199951 638.599976 H 1209.299952 V 647.699976 H 1200.199951 V 638.599976 Z"/>
				</g>
			</g>
			<g>
				<g>
					<g>
						<g>
							<path d="M 1127.900024 686.700012 H 1169.400024 V 695.800013 H 1127.900024 V 686.700012 Z"/>
						</g>
					</g>
				</g>
				<g>
					<path d="M 1215.699951 686.700012 H 1224.799952 V 695.800013 H 1215.699951 V 686.700012 Z"/>
				</g>
				<g>
					<path d="M 1200.199951 686.700012 H 1209.299952 V 695.800013 H 1200.199951 V 686.700012 Z"/>
				</g>
			</g>
		</g>


</svg>