<?xml version="1.0" encoding="utf-8"?>
<svg id="master-artboard" viewBox="0 0 300 300" version="1.0" xmlns="http://www.w3.org/2000/svg" x="0px" y="0px" width="300px" height="300px" enable-background="new 0 0 1400 980"><rect id="ee-background" x="0" y="0" width="300" height="300" style="fill: white; fill-opacity: 0; pointer-events: none;"/>
<g transform="matrix(1, 0, 0, 1, -397.627197265625, -515.5008697509766)">
		<g>
			<g>
				<g>
					<path d="M640.9,727.3V558.5H445.1v168.9h60.1v18.6h-14v9.1h103.6v-9.1h-14v-18.6H640.9z M454.1,567.5h177.8v8.5H454.1V567.5z&#10;&#9;&#9;&#9;&#9;&#9;&#9; M454.1,585.1h177.8v56.1H454.1V585.1z M454.1,650.3h177.8v45.3H454.1V650.3z M571.8,745.9h-57.5v-18.6h57.5V745.9z&#10;&#9;&#9;&#9;&#9;&#9;&#9; M454.1,718.3v-13.6h177.8v13.6H454.1z"/>
				</g>
			</g>
			<g>
				<g>
					<path d="M510.1,688.5h-48.9v-31.1h48.9V688.5z M470.1,679.6h31.1v-13.3h-31.1V679.6z"/>
				</g>
				<g>
					<path d="M567.5,688.5h-48.9v-31.1h48.9V688.5z M527.4,679.6h31.1v-13.3h-31.1V679.6z"/>
				</g>
				<g>
					<path d="M624.8,688.5h-48.9v-31.1h48.9V688.5z M584.8,679.6h31.1v-13.3h-31.1V679.6z"/>
				</g>
			</g>
		</g>
	</g><g transform="matrix(1, 0, 0, 1, -397.627197265625, -515.5008697509766)">
			<path d="M 482.70001220703125 631.2999877929688 L 463.8999938964844 612.5 L 482.79998779296875 594.2000122070312 L 489.1000061035156 600.7000122070312 L 476.79998779296875 612.5999755859375 L 489.1000061035156 624.9000244140625 Z"/>
		</g><path d="M 603.2999877929688 631.2999877929688 L 597 624.7999877929688 L 609.2000122070312 612.9000244140625 L 596.9000244140625 600.5999755859375 L 603.2999877929688 594.2000122070312 L 622.0999755859375 613 Z" transform="matrix(1, 0, 0, 1, -397.627197265625, -515.5008697509766)"/>







</svg>