<?xml version="1.0" encoding="utf-8"?>
<svg id="master-artboard" viewBox="0 0 300 300" version="1.1" xmlns="http://www.w3.org/2000/svg" x="0px" y="0px" style="enable-background:new 0 0 1400 980;" width="300px" height="300px"><rect id="ee-background" x="0" y="0" width="300" height="300" style="fill: white; fill-opacity: 0; pointer-events: none;"/>

<path class="st0" d="M1241.3,778.2c-11.2,0-20.4,9.1-20.4,20.4v20.9c0,1.6-1.3,2.9-2.9,2.9h-13.3l4.6-108c0,0,0-0.1,0-0.1&#10;&#9;&#9;c0-19.1-15.6-34.7-34.7-34.7s-34.7,15.6-34.7,34.7c0,0,0,0.1,0,0.1l2.6,68.2h-11.9c-1.7,0-3.1-1.4-3.1-3.1v-21.4&#10;&#9;&#9;c0-11.5-9.3-20.8-20.8-20.8c-11.5,0-20.8,9.3-20.8,20.8v39.5c0,0.1,0,0.1,0,0.2c0.5,6.7,4.4,22.7,28.5,26.3c0.1,0,0.3,0,0.4,0h29.3&#10;&#9;&#9;l4,105.4c0.1,1.4,1.2,2.5,2.6,2.5h47.1c1.4,0,2.5-1.1,2.6-2.5l2.8-66.5h30.5c0.1,0,0.3,0,0.4,0c23.6-3.5,27.3-19.1,27.9-25.7&#10;&#9;&#9;c0-0.1,0-0.1,0-0.2v-38.6C1261.7,787.3,1252.5,778.2,1241.3,778.2z M1107.9,742.5c8,0.7,14.4,7.4,14.4,15.6v21.4&#10;&#9;&#9;c0,4.5,3.7,8.2,8.2,8.2h12.1l0.5,13.1h-19.7c-8.5,0-15.5-6.9-15.5-15.5V742.5z M1114.9,819c-19.5-3-23.4-14.7-23.9-21.5v-39.4&#10;&#9;&#9;c0-8.2,6.3-15,14.4-15.6v42.8c0,9.9,8.1,18,18,18h19.8l0.6,15.3l0,0.4H1114.9z M1218,827.5c4.4,0,8.1-3.6,8.1-8.1v-20.9&#10;&#9;&#9;c0-8.4,6.8-15.2,15.2-15.2c0.3,0,0.7,0,1,0v43.4c0,8.7-7,15.7-15.7,15.7h-22.8l0.6-14.9H1218z M1153,926.9l-8-212.7&#10;&#9;&#9;c0-13.3,8.9-24.5,21-28.2c-4.5,5.9-7.4,16.2-7.4,28.3l3.6,212.6H1153z M1164.8,926.9l-3.6-212.7c0-13.4,3.9-25.1,9.3-29.3&#10;&#9;&#9;c1.4-0.2,2.7-0.3,4.1-0.3c1.4,0,2.8,0.1,4.1,0.3c5.3,4.1,9.3,15.8,9.3,29.2l-4.1,212.7H1164.8z M1198.3,851.5l-0.4,9c0,0,0,0,0,0&#10;&#9;&#9;l-2.8,66.5h-8.7l4.1-212.7c0-12-2.9-22.4-7.4-28.3c12.1,3.7,20.9,14.9,21,28.2L1198.3,851.5z M1256.6,837.1&#10;&#9;&#9;c-0.6,6.6-4.4,18-23.3,20.9h-30.1l0.5-13h22.9c10.1,0,18.3-8.2,18.3-18.3v-43c6.7,1.6,11.7,7.6,11.7,14.8V837.1z" style="fill: rgb(65, 64, 66);" transform="matrix(1, 0, 0, 1, -1031.001708984375, -650.6626586914062)"/>
</svg>