<?xml version="1.0" encoding="utf-8"?>
<svg id="master-artboard" viewBox="0 0 300 300" version="1.0" xmlns="http://www.w3.org/2000/svg" x="0px" y="0px" width="300px" height="300px" enable-background="new 0 0 1400 980"><rect id="ee-background" x="0" y="0" width="300" height="300" style="fill: white; fill-opacity: 0; pointer-events: none;"/>






<g transform="matrix(1, 0, 0, 1, -1024.7151947021484, -179.16793823242188)">
		<g>
			<path d="M1078.4,225.1v196.4h195.8V225.1H1078.4z M1265.2,412.5h-177.7V269.4h177.7V412.5z M1265.2,260.3h-177.7v-26.2h177.7&#10;&#9;&#9;&#9;&#9;V260.3z"/>
		</g>
		<g>
			<g>
				<g>
					<path d="M 1098.099976 242.699997 H 1193.999977 V 251.799997 H 1098.099976 V 242.699997 Z"/>
				</g>
			</g>
		</g>
		<g>
			<path d="M 1229.900024 242.699997 H 1239.000025 V 251.799997 H 1229.900024 V 242.699997 Z"/>
		</g>
		<g>
			<path d="M 1245.400024 242.699997 H 1254.500025 V 251.799997 H 1245.400024 V 242.699997 Z"/>
		</g>
		<g>
			<path d="M 1214.400024 242.699997 H 1223.500025 V 251.799997 H 1214.400024 V 242.699997 Z"/>
		</g>
	</g><g transform="matrix(1, 0, 0, 1, -1024.7151947021484, -179.16793823242188)">
			<g>
				<path d="M 1096.199951 376.600006 H 1256.399948 V 385.700006 H 1096.199951 V 376.600006 Z"/>
			</g>
			<g>
				<path d="M 1096.199951 393 H 1199.79995 V 402.1 H 1096.199951 V 393 Z"/>
			</g>
		</g><path d="M1184,279.5v88.7h72.4v-88.7H1184z M1242.7,288.5l-22.5,28.3l-22.5-28.3H1242.7z M1192.9,296.8l21.6,27.2l-21.6,27.1&#10;&#9;&#9;&#9;V296.8z M1197.7,359.4l22.5-28.3l22.5,28.3H1197.7z M1247.5,351.1l-21.6-27.1l21.6-27.2V351.1z" transform="matrix(1, 0, 0, 1, -1024.7151947021484, -179.16793823242188)"/><path d="M1135.6,318.3c-10.7,0-19.4-8.7-19.4-19.4c0-10.7,8.7-19.4,19.4-19.4c10.7,0,19.4,8.7,19.4,19.4&#10;&#9;&#9;&#9;&#9;C1155,309.6,1146.3,318.3,1135.6,318.3z M1135.6,288.5c-5.8,0-10.4,4.7-10.4,10.4c0,5.8,4.7,10.4,10.4,10.4s10.4-4.7,10.4-10.4&#10;&#9;&#9;&#9;&#9;C1146,293.1,1141.4,288.5,1135.6,288.5z" transform="matrix(1, 0, 0, 1, -1024.7151947021484, -179.16793823242188)"/><path d="M1175,368.3h-78.8v-26.5c0-14.4,8.5-24.1,21.1-24.1h1.8l16.4,16.4l16.4-16.4h1.8c12.6,0,21.1,9.7,21.1,24.1V368.3z&#10;&#9;&#9;&#9;&#9; M1105.1,359.4h61v-17.5c0-6.9-2.8-14.2-10.5-15.1l-20,20l-20-20c-7.7,1-10.5,8.3-10.5,15.1V359.4z" transform="matrix(1, 0, 0, 1, -1024.7151947021484, -179.16793823242188)"/>

</svg>